<svg width="16" height="16" viewBox="0 0 16 16" fill="none" xmlns="http://www.w3.org/2000/svg">
<path d="M1.66602 8.00008C1.66602 5.01452 1.66602 3.52174 2.59351 2.59424C3.52101 1.66675 5.01379 1.66675 7.99935 1.66675C10.9849 1.66675 12.4777 1.66675 13.4052 2.59424C14.3327 3.52174 14.3327 5.01452 14.3327 8.00008C14.3327 10.9856 14.3327 12.4784 13.4052 13.4059C12.4777 14.3334 10.9849 14.3334 7.99935 14.3334C5.01379 14.3334 3.52101 14.3334 2.59351 13.4059C1.66602 12.4784 1.66602 10.9856 1.66602 8.00008Z" stroke="#071A18"/>
<path d="M10.0007 8.00011H5.33398M8.33409 5.66675C8.33409 5.66675 10.6674 7.38524 10.6674 8.00011C10.6674 8.61497 8.33409 10.3334 8.33409 10.3334" stroke="#071A18" stroke-linecap="round" stroke-linejoin="round"/>
</svg>
